<svg width="83" height="101" viewBox="0 0 83 101" fill="none" xmlns="http://www.w3.org/2000/svg">
<path d="M7.67259 74.7343C4.12816 71.7601 1.49543 67.8715 0.0391722 63.5271L0 63.0178C1.16667 50.0178 6.2 23.3178 17 20.5178C31 16.8882 38 63.0178 38 63.0178C38 63.0178 44.2204 -1.22602 63.5 0.0178317C79 1.01784 85 33.0178 81 91.5178L80.9793 91.5394L71 97.301C67.6083 99.2591 63.8715 100.359 60.0923 100.6C67.0658 88.4611 66.4064 40.5364 63 23.0178C61.0082 28.5335 59.439 37.0188 57.7456 46.1753C53.9128 66.9002 49.4439 91.0642 38 92.0178C37.5761 92.0532 37.1559 92.0308 36.7396 91.9545L32.9536 89.7686C25.748 82.7894 20.1804 61.3736 18 49.5178C17.603 60.2373 13.561 72.5001 11.5451 77.4084L11.2442 77.2347C10.9834 77.0841 10.7259 76.9292 10.4718 76.7701L7.67259 74.7343Z" fill="#B3DBC9"/>
</svg>
